<svg height="512pt" viewBox="0 -113 512.004 512" width="512pt" xmlns="http://www.w3.org/2000/svg">
<defs>
<linearGradient spreadMethod="pad" id="gradient" x1="0%" y1="34%" x2="93%" y2="0%">
<stop offset="0%" style="stop-color:rgb(4, 26, 52);stop-opacity:1;" />
	<stop offset="100%" style="stop-color:rgb(39, 174, 243);stop-opacity:1;" />
</linearGradient>
</defs>
<g fill="url(#gradient)">
<path  d="m164.644531 69.992188c-1.277343-3.9375-5.511719-6.097657-9.449219-4.816407-3.9375 1.277344-6.097656 5.507813-4.816406 9.449219l6.835938 21.058594c1.027344 3.167968 3.96875 5.183594 7.132812 5.183594.765625 0 1.546875-.117188 2.316406-.367188 3.941407-1.28125 6.097657-5.511719 4.816407-9.449219zm0 0"/><path d="m198.8125 69.992188c-1.28125-3.9375-5.511719-6.097657-9.453125-4.816407-3.9375 1.277344-6.09375 5.507813-4.816406 9.449219l6.839843 21.058594c1.027344 3.167968 3.96875 5.183594 7.128907 5.183594.769531 0 1.550781-.117188 2.320312-.367188 3.9375-1.28125 6.09375-5.511719 4.816407-9.449219zm0 0"/><path d="m356.804688 65.175781c-3.9375-1.28125-8.167969.875-9.449219 4.816407l-6.835938 21.058593c-1.277343 3.9375.878907 8.167969 4.816407 9.445313.769531.25 1.550781.371094 2.316406.371094 3.164062 0 6.105468-2.015626 7.132812-5.1875l6.835938-21.058594c1.28125-3.9375-.875-8.167969-4.816406-9.445313zm0 0"/><path d="m322.640625 65.175781c-3.941406-1.28125-8.171875.875-9.449219 4.816407l-6.839844 21.058593c-1.277343 3.9375.878907 8.167969 4.820313 9.445313.769531.25 1.546875.371094 2.316406.371094 3.160157 0 6.101563-2.015626 7.132813-5.1875l6.835937-21.058594c1.277344-3.9375-.878906-8.167969-4.816406-9.445313zm0 0"/><path d="m486.230469 57h-13.574219v-17.332031h31.84375c4.144531 0 7.5-3.355469 7.5-7.5 0-4.140625-3.355469-7.5-7.5-7.5h-31.855469c-.363281-10.277344-8.835937-18.523438-19.199219-18.523438h-8.230468c-10.363282 0-18.835938 8.25-19.199219 18.523438h-31.855469c-4.144531 0-7.5 3.359375-7.5 7.5 0 4.144531 3.355469 7.5 7.5 7.5h31.84375v17.332031h-11.449218c-16.355469 0-31.507813-9.519531-38.605469-24.253906-9.585938-19.890625-30.042969-32.74218775-52.121094-32.74218775h-135.65625c-22.078125 0-42.535156 12.85156275-52.117187 32.74218775-7.101563 14.734375-22.253907 24.253906-38.609376 24.253906h-11.449218v-17.332031h31.84375c4.144531 0 7.5-3.355469 7.5-7.5 0-4.140625-3.355469-7.5-7.5-7.5h-31.855469c-.363281-10.277344-8.835937-18.523438-19.199219-18.523438h-8.230468c-10.363282 0-18.835938 8.25-19.199219 18.523438h-31.855469c-4.144531 0-7.5 3.359375-7.5 7.5 0 4.144531 3.355469 7.5 7.5 7.5h31.84375v17.332031h-13.574219c-14.210937 0-25.769531 11.5625-25.769531 25.769531 0 21.609375 17.578125 39.1875 39.1875 39.1875h44.089844l-3.210938 26.824219c-.492187 4.113281 2.441406 7.847656 6.554688 8.339844.304687.035156.605468.054687.902344.054687 3.742187 0 6.980468-2.800781 7.4375-6.609375l3.425781-28.605468h28.917969l-40.925782 149.265624h-5.859375l10.296875-86.011718c.492188-4.113282-2.445312-7.84375-6.558594-8.335938-4.105468-.496094-7.847656 2.441406-8.335937 6.554688l-10.605469 88.613281c-.542968 3.507813.449219 7.0625 2.738282 9.789063 2.34375 2.792968 5.773437 4.390624 9.417968 4.390624h10.972656c5.324219 0 10.019532-3.398437 11.6875-8.457031.039063-.117187.074219-.238281.105469-.359375l42.578125-155.304687c7.429688.710937 14.324219 3.945312 19.667969 9.289062 8.917969 8.921875 20.777344 13.832031 33.394531 13.832031h21.714844l4.078125 23.636719c-13.953125 2.488281-24.574219 14.707031-24.574219 29.363281v44.234376c0 16.445312 13.378906 29.824218 29.824219 29.824218h58.160156c16.445313 0 29.824219-13.378906 29.824219-29.824218v-44.234376c0-14.65625-10.621094-26.875-24.570312-29.363281l4.074218-23.636719h21.71875c12.613282 0 24.472656-4.910156 33.390625-13.832031 5.34375-5.34375 12.238281-8.578125 19.667969-9.289062l42.578125 155.304687c.03125.121094.070313.242188.105469.359375 1.667968 5.058594 6.363281 8.457031 11.6875 8.457031h10.972656c3.644531 0 7.074219-1.597656 9.417969-4.390624 2.289062-2.726563 3.28125-6.28125 2.738281-9.789063l-10.578125-88.386719c-.492187-4.113281-4.226563-7.046875-8.335937-6.554687-4.113282.492187-7.050782 4.226562-6.558594 8.339843l10.269531 85.78125h-5.859375l-40.925781-149.269531h28.917969l3.453124 28.832031c.453126 3.8125 3.691407 6.609376 7.4375 6.609376.296876 0 .597657-.015626.898438-.054688 4.113281-.492188 7.050781-4.222656 6.558594-8.335938l-3.238282-27.050781h44.089844c21.609375 0 39.1875-17.578125 39.1875-39.1875-.003906-14.207031-11.5625-25.769531-25.773437-25.769531zm-45.226563-31.648438c0-2.320312 1.890625-4.207031 4.210938-4.207031h8.230468c2.320313 0 4.210938 1.886719 4.210938 4.207031v31.648438h-16.652344zm-386.660156 0c0-2.320312 1.890625-4.207031 4.210938-4.207031h8.230468c2.320313 0 4.210938 1.886719 4.210938 4.207031v31.648438h-16.652344zm245.5625 172.875v44.234376c0 8.175781-6.648438 14.824218-14.824219 14.824218h-58.164062c-8.175781 0-14.824219-6.648437-14.824219-14.824218v-44.234376c0-8.175781 6.648438-14.828124 14.824219-14.828124h3.523437.042969.046875 50.9375.046875.042969 3.519531c8.179687 0 14.828125 6.652343 14.828125 14.828124zm-67.09375-53h46.375l-3.996094 23.171876h-38.382812zm240-38.269531h-97.8125c-.089844 0-.179688 0-.273438 0h-2.421874c-12.613282 0-24.472657 4.914063-33.394532 13.832031-6.085937 6.085938-14.179687 9.4375-22.785156 9.4375h-120.25c-8.605469 0-16.699219-3.351562-22.785156-9.4375-8.921875-8.917968-20.777344-13.832031-33.394532-13.832031h-2.394531c-.113281-.003906-.222656-.003906-.335937 0h-97.777344c-13.335938 0-24.1875-10.851562-24.1875-24.1875 0-5.9375 4.832031-10.765625 10.769531-10.765625h71.675781c22.082032 0 42.539063-12.855468 52.121094-32.746094 7.097656-14.734374 22.253906-24.253906 38.605469-24.253906h135.65625c16.351563 0 31.507813 9.519532 38.605469 24.253906 9.582031 19.890626 30.039062 32.746094 52.121094 32.746094h71.675781c5.9375 0 10.769531 4.828125 10.769531 10.765625 0 13.335938-10.851562 24.1875-24.1875 24.1875zm0 0"/><path d="m256 195.078125c-13.929688 0-25.265625 11.335937-25.265625 25.265625s11.335937 25.265625 25.265625 25.265625 25.265625-11.335937 25.265625-25.265625-11.335937-25.265625-25.265625-25.265625zm0 35.527344c-5.660156 0-10.265625-4.601563-10.265625-10.261719s4.605469-10.265625 10.265625-10.265625 10.265625 4.605469 10.265625 10.265625-4.605469 10.261719-10.265625 10.261719zm0 0"/></g></svg>