<?xml version="1.0" encoding="utf-8"?>
<!-- Generator: Adobe Illustrator 19.2.1, SVG Export Plug-In . SVG Version: 6.00 Build 0)  -->
<svg version="1.1" id="Layer_1" xmlns="http://www.w3.org/2000/svg" xmlns:xlink="http://www.w3.org/1999/xlink" x="0px" y="0px"
	 viewBox="0 0 255.3 84.3" style="enable-background:new 0 0 255.3 84.3;" xml:space="preserve">
<style type="text/css">
	.st0{fill:#FFFFFF;}
</style>
<g>
	<path class="st0" d="M23.9,53.2H19l-8.6-11H7.3v11H3.4V23h10.5c3,0,5.4,0.9,7.2,2.8c1.6,1.7,2.5,3.8,2.6,6.3c0.1,2.5-0.5,4.7-2,6.5
		c-1.6,2.1-3.7,3.2-6.5,3.6L23.9,53.2z M7.3,38.4h6.6c1.9,0,3.4-0.6,4.5-1.8c1-1.1,1.5-2.4,1.5-4c0-1.6-0.5-2.9-1.5-4
		c-1.1-1.2-2.6-1.8-4.5-1.8H7.3V38.4z"/>
	<path class="st0" d="M50.1,53.2l-3.4-7.5H33.1l-3.3,7.5h-4.3c0.4-0.9,5.2-11.4,14.5-31.5l14.5,31.5H50.1z M45.1,41.9l-5.2-11.6
		l-5.1,11.6H45.1z"/>
	<path class="st0" d="M71.4,23h4.3L62,54.3L48.4,23h4.3L62,45L71.4,23z"/>
	<path class="st0" d="M94.3,36.2v3.6H82.8v9.6h13.5v3.7H78.9V23h16.7v3.7H82.8v9.6H94.3z"/>
	<path class="st0" d="M119,23h3.9V54l-19.2-22.1v21.3h-3.9V21.9L119,44V23z"/>
	<path class="st0" d="M182.4,30.1c-0.8-0.5-1.7-0.7-2.8-0.7c-1.1,0-2,0.2-2.7,0.7c-0.8,0.5-1.3,1.2-1.3,2.1c0,0.9,0.8,1.6,2.5,2.1
		c0.5,0.2,1.4,0.4,2.6,0.7c1.3,0.3,2.3,0.6,3,0.7c2.4,0.7,4.3,1.6,5.5,2.7c1.7,1.5,2.5,3.4,2.5,5.9c0,2.9-1.3,5.3-3.9,7
		c-2.3,1.6-5.2,2.3-8.6,2.4c-3.4,0-6.3-0.8-8.6-2.3c-2.6-1.7-3.9-4.1-3.9-7.2l8.5-0.3c0,1,0.5,1.8,1.3,2.4c0.8,0.5,1.7,0.8,2.8,0.8
		c1.1,0,2-0.2,2.8-0.7c0.8-0.5,1.3-1.2,1.3-2c0-0.8-0.8-1.5-2.5-2.1c-0.5-0.2-1.4-0.5-2.6-0.8c-1.4-0.4-2.3-0.7-3-0.9
		c-2.4-0.8-4.3-1.7-5.5-2.8c-1.7-1.4-2.5-3.3-2.5-5.6c0-2.9,1.3-5.3,3.8-7c2.3-1.6,5.1-2.4,8.4-2.4c3.3,0,6.1,0.7,8.4,2.2
		c2.4,1.6,3.7,3.9,3.8,6.6l-8,0.7C183.7,31.4,183.2,30.6,182.4,30.1z"/>
	<path class="st0" d="M202.9,53.2H195V23h7.9v13.4L213.6,23h9.6L211,37.7l13,15.5h-9.6l-11.5-14.1V53.2z"/>
	<path class="st0" d="M242.1,53.2h-7.9V41.4L224,23h8.7l5.5,10.5l5.5-10.5h8.7l-10.2,18.5V53.2z"/>
</g>
<g>
	<path class="st0" d="M154.6,4.6c-2-2.2-5.2-2.2-7.9-1.9c-3.1-0.3-7.2-2-9.6,0.9c2.9,0.1,5.8,1.5,7.5,3.8c-2.5,0.2-5.1-0.1-7.5,0.9
		c1.5,1.2,3.6,1.2,5.4,1.1c-0.2,0.2-0.4,0.4-0.6,0.6c2.4,2.1,2.7,3.9,3.6,6.9c0,2.3,3.1,3.6,3.1,3.6l6.4,0.8l4.4-2.6
		C159,13.6,157.8,8.5,154.6,4.6z M150.3,6.2c-0.5,0-1.1-0.2-2.9-1.8l3.4,0.3C150.8,4.7,150.8,6.2,150.3,6.2z"/>
	<g>
		<path class="st0" d="M162.8,22.5c-0.3-1.1-1-2-1.7-2.9c0.1,2.1,0.1,4.2-0.1,6.4l-0.6-1.1c0.1-2.8,0.5-5.9-1.3-8.3
			c-2.6,0.8-4.6,3.3-7.6,3c-2.3,0.1-3.7-2.1-4.6-3.9c-0.5,0-0.9,0.1-1.4,0.2c0,1-0.2,1.9-0.6,2.8c2.8,0.6,4,3.3,4.3,5.9
			c-0.3,0.4-0.5,0.8-0.7,1.2c0-1.9-0.4-3.8-1.6-5.2c-0.8-0.8-2.2-1.6-3.3-0.8c-2.9,1.7-5.4,4.1-6.8,7.1c0.8-0.5,1.5-1.2,2.3-1.7
			c-1.9,2.3-3.4,4.9-4.4,7.7c-1.5,3.8-3,7.7-4.6,11.5c-0.4,1-0.6,2-0.4,3.1c-0.2-0.2-0.4-0.4-0.5-0.5c-1,2.6-2.3,5.1-3.3,7.7
			c0.5-0.3,0.8-0.8,1.2-1.3c-1.5,3.9-4.8,7.5-4.6,11.9c0.6,0.3,1.3-0.1,1.6-0.7c1.7-2.9,3.3-5.7,5.1-8.5c-0.6,1.9-2.1,3.6-2.2,5.6
			c0.7,1.6,2.5,0.3,3.2-0.6c2.6-3.4,5.1-7.1,6.5-11.2c-0.3,2.5-0.5,5.2,0.6,7.6c0.7,1.2,0,2.8,1,3.9c1.6,1.9,3.4,3.7,4.6,5.9
			c0.1,0.3,0.3,0.6,0.4,1c0,0.2,0,1.1-0.2,1.3c-0.1,0-0.6,1.1-0.7,1.1l1.5-0.5l3-1c-0.1-0.1-0.8-0.9-0.9-1c-2.1-2.4-4.4-4.8-4.9-8.1
			c-0.4-1.8,0.9-3.2,1.4-4.8c0.8-2.3,1-4.8,1.8-7.1c0,0.7,0,1.4,0,2.1c2.3,0,4.3-1.1,6.5-1.5c-0.7,0.7-1.6,1.1-2.5,1.6
			c-0.3,1.4-0.2,2.8-0.1,4.2c0.1,1.7,0.1,3.7,1.3,5.1c1.7,2.2,3.4,4.4,4.8,6.8c0.3,0.4,0.5,1.2,0.2,1.7c0,0.1-0.1,0.1-0.1,0.1
			l1.6-0.7c0,0,0.7-0.7,0.7-0.7c-1.5-2-2.3-3.2-3.6-5.3c-0.8-1.6-2-3.6-1-5.4c1.1-2.2,1.8-4.6,2.6-7c1.3-2.6,2.6-5.3,3.9-7.9
			c-0.2,1.2-0.5,2.3-0.7,3.5C162.6,38.6,164.7,30.2,162.8,22.5z M130,47.9c2.3-5.1,5.2-10,8.1-14.8c-2.4,4.9-4.9,9.8-7.4,14.7
			c-0.5,0.9-0.5,2-0.6,3C129.6,50,129.5,48.9,130,47.9z M130.3,54.9c-0.6-1.3-0.2-2.8,0.5-4c2.5-4.6,5-9.2,7.7-13.7
			c-2.2,5.1-4.9,9.9-7.6,14.7C130.4,52.8,130.4,53.9,130.3,54.9z M142.9,35.9c-3.5,6.2-7.2,12.3-11,18.3c1.3-2.6,2.7-5.1,4-7.6
			c2.5-4.3,5.2-8.5,7.5-12.9c1.3-2.5,1.9-5.2,2-8C145.8,29.4,144.7,32.9,142.9,35.9z M160.8,29.3c0,0-0.1,0-0.1,0.1
			c-0.7,0.4-1.4,0.7-2.2,1c-0.9,0.3-1.9,0.6-2.9,0.7l0,0c0,0,0,0,0,0c1.2-1.1,2.3-2.3,3.1-3.7c0.4-0.6,0.7-1.3,1-1.9
			C160.5,26.6,160.9,27.9,160.8,29.3z M159,24.5c0.1,0.1,0.1,0.1,0.2,0.2c0,0,0,0.1,0,0.1c-0.2,0.8-0.5,1.5-0.8,2.2
			c-0.4,0.9-0.9,1.8-1.5,2.6l0,0c0,0,0,0,0,0c0.1-1.6,0-3.2-0.5-4.8c-0.2-0.7-0.4-1.4-0.7-2C156.9,23,158,23.5,159,24.5z
			 M154.8,22.7c0,0,0.1,0.1,0.1,0.1c0.4,0.7,0.7,1.4,1,2.2c0.3,0.9,0.6,1.9,0.8,2.9c0,0-0.1-0.1-0.1-0.1c-1-1.2-2.2-2.2-3.6-3
			c-0.6-0.4-1.2-0.7-1.9-1C152.2,23,153.5,22.6,154.8,22.7z M150.1,24.5c0.1-0.1,0.2-0.2,0.3-0.2c0,0,0.1,0,0.1,0
			c0.8,0.2,1.5,0.5,2.2,0.8c0.9,0.4,1.8,1,2.6,1.6h-0.1c-1.6-0.1-3.2,0.1-4.8,0.5c-0.7,0.2-1.4,0.4-2,0.7
			C148.6,26.6,149.2,25.4,150.1,24.5z M148.3,28.7c0,0,0.1-0.1,0.1-0.1c0.7-0.4,1.4-0.8,2.1-1c0.9-0.3,1.9-0.6,2.9-0.8
			c-0.1,0.1-0.2,0.2-0.3,0.3c-1.1,1-2.1,2.1-2.8,3.4c-0.4,0.6-0.7,1.2-0.9,1.9C148.6,31.3,148.2,30,148.3,28.7z M150.1,33.4
			c-0.1-0.1-0.2-0.2-0.3-0.3c0,0,0-0.1,0-0.1c0.2-0.8,0.5-1.5,0.8-2.2c0.4-0.9,1-1.8,1.6-2.6l0,0c0,0,0,0,0,0v0l0,0.1v0
			c-0.1,1.6,0.1,3.2,0.5,4.8c0.2,0.7,0.4,1.4,0.7,2C152.3,34.9,151.1,34.3,150.1,33.4z M154.4,35.2c0,0-0.1-0.1-0.1-0.1
			c-0.4-0.7-0.8-1.4-1-2.1c-0.4-0.9-0.6-1.9-0.8-2.9c0,0,0,0,0,0c1.1,1.2,2.3,2.2,3.7,3.1c0.6,0.4,1.3,0.7,1.9,0.9
			C157,34.9,155.7,35.2,154.4,35.2z M156.4,32.7c-0.9-0.4-1.8-0.9-2.6-1.5c0,0,0.1,0,0.1,0c1.6,0.1,3.2,0,4.7-0.4
			c0.7-0.2,1.4-0.4,2-0.7c-0.2,1.2-0.8,2.3-1.7,3.2c-0.1,0.1-0.1,0.1-0.2,0.2c0,0-0.1,0-0.1,0C157.9,33.3,157.1,33.1,156.4,32.7z"/>
	</g>
	<path class="st0" d="M141.5,70.5c1.8,0,3.2-1.5,5-1.6c1.5-0.3,3.1,0.3,4.4-0.7c1.6-1,3.1-2.1,4.7-3.1c2.3-1,4.6-1.6,7-2.4
		c1.7-0.8,3-2.6,5-2.5c1.3,0.3,2.7,0.9,4,0.6c0.6-1,1-2.2,2-2.8c0.7-0.5,1.5-0.2,2.3-0.4c0.6-0.3,1-1.1,1.8-1.1
		c1.1-0.1,2.1-0.7,3.1-1c-0.5,1.1-1.8,1.4-2.8,1.7c-0.7,0-1.1,0.7-1.7,1.1c-0.7,0.4-1.5,0.1-2.2,0.5c-0.7,0.4-1,1.2-1.3,1.9
		c1.6-0.1,3.1-0.2,4.7-0.3c1-0.1,1.9,0.6,2.9,0.6c1.3,0.2,2.7-0.4,4,0.2c3.2,1.2,6.4,2.7,9.5,4c0.4,0.2,0.8,0.4,1.1,0.8
		c-0.4,0-0.9,0-1.3-0.2c-2-0.8-4.1-1.5-6.2-2.2c0.1,1.5,0.9,2.8,2.1,3.6c1.3,0.9,2.7,1.6,4,2.6c-0.1,0.1-0.2,0.2-0.2,0.3
		c-1.2-0.5-2.2-1.3-3.3-1.9c0.4,0.8,0.8,1.7,1.3,2.5c0.5,1,1.4,1.6,1.7,2.7c0.3,0.9,0.5,1.9,0.5,2.9c-0.9-0.9-0.7-2.4-1.4-3.4
		c-0.5-0.7-1.2-1.3-1.5-2.1c-0.8-1.5-1.5-3.1-2.6-4.3c-0.8-0.9-1.1-2.1-1.2-3.3c-1.4-0.4-2.8-1.3-4.3-1.1c-0.8,0.1-1.7,0.2-2.5,0.2
		c0.7,1.6,2.4,2.4,3,4.1c0.4,1.1,1.2,2.1,1.1,3.4c-1-1.1-1.4-2.7-2.3-4c-0.6-0.8-1.3-1.3-1.9-2c-0.4-0.5-0.7-1.2-1.1-1.7
		c-0.4-0.4-1-0.3-1.4-0.3c-2.4,0.3-4.7,0.5-7.1,0.8c-1.1,0.2-2.2-0.4-3.4-0.5c-1.5,0.5-2.5,2-3.9,2.6c-1.3,0.5-2.7,1-4,1.6
		c1.3,0.7,2.9,0.2,4.2,0.7c0.9,0.3,1.9,0.5,2.8,0.9c0.8,0.4,0.8,1.4,1.4,2c0.9,0.3,1.8,0.5,2.7,0.9c1.7,0.7,3.5,0.2,5.2,0.7
		c0,0.1-0.1,0.3-0.1,0.4c-1-0.1-2.1-0.1-3.1-0.1c-1.4,0-2.7-0.5-4.1-0.6c0.3,0.9,0.8,1.8,1.6,2.2c1.3,0.7,2,2,2.9,3
		c1.1,1,2.6,1.3,3.5,2.7c0.6,1,1.5,1.8,1.9,3c-1-0.5-1.6-1.6-2.4-2.5c-0.9-1.2-2.3-1.5-3.4-2.3c-0.6-0.5-1.1-1.2-1.7-1.8
		c-0.3,1.7-0.1,3.4-0.5,5c-0.5-0.4-0.3-1-0.3-1.5c0-1.4,0.1-2.8,0-4.2c-0.7-0.5-1.5-0.9-2-1.6c-0.8-1.2-1.3-2.5-2-3.7
		c-0.2-0.4-0.6-0.4-0.9-0.5c-1-0.2-2-0.6-3-0.5c-0.7,0-1.5,0.2-2.2,0c-1-0.3-1.9-0.8-2.9-1.1c-0.3-0.1-0.5,0.1-0.7,0.3
		c-1.3,1-2.7,2-4,3c-1.8,1.6-4.3,0.6-6.3,1.6c-2.1,0.9-3.1,1.4-3.9,1.5c-1.9,0.2-4.1,0.3-6.2,0.5c-0.7,0.1-1.4-0.1-2-0.3
		c-1.8-0.6-3.6-1.2-5.3-2c-0.9-0.3-1.8-0.7-2.7-0.3c-1.6,0.7-3.1,1.4-4.8,1.7c-0.5,0.1-1.1,0.2-1.5-0.1c-1.5-0.9-2.4-2.9-2.2-4.7
		c0.1-0.5,0.2-1.1,0.8-1.2c1.3-0.6,2.5,0.7,3.9,0.5c1.4-0.2,2.7-0.7,4.1-0.8c1.9,0,3.7,0.8,5.4,1.8c1.8,0.7,3.7,1.9,5.7,1.4
		C139.4,70.2,140.8,70.5,141.5,70.5z"/>
</g>
</svg>
